<svg xmlns="http://www.w3.org/2000/svg" viewBox="0 0 578.81 552"><defs><style>.cls-1{fill:#ce7832;stroke:#dadada;stroke-miterlimit:10;stroke-width:40px;}</style></defs><g id="Layer_2" data-name="Layer 2"><g id="Layer_1-2" data-name="Layer 1"><path class="cls-1" d="M302.81,20c-141.38,0-256,114.62-256,256A255.22,255.22,0,0,0,67.43,376.79L20.12,523.47a2.52,2.52,0,0,0,2.95,3.23l.34-.1,124.26-47A254.84,254.84,0,0,0,302.81,532c141.39,0,256-114.62,256-256S444.2,20,302.81,20Z"/><path d="M365.31,362.15c-11.74,13.88-41.18,18.61-92.94-58.3-46.71-69.41-48.42-70.86-41-87.5h0l12.23-9h0c6.87-5.88,6.87-5.88,14-9.7h0l.2-.18A22.56,22.56,0,0,0,263,169.1l-17.48-30.84,0,0c-7.85-9.11-30.67-3.46-39.79,4.38l-36,31L156.48,185h0a21.86,21.86,0,0,0-2.31,30.82h0c9.88,14.3,20.24,22.37,30.11,36.68h0c.61,5.71,17.36,47.6,41.17,76.07,26.14,31.27,64.81,64.21,87.11,81.55h0l36.62,32.31.06.07A21.91,21.91,0,0,0,380,444.72l49.2-42.34c9.11-7.84,26.23-26.18,11.6-36.59l0,0-35.92-22.3a22,22,0,0,0-27.15,3.1l-.09.08"/></g></g></svg>